<svg xmlns="http://www.w3.org/2000/svg" viewBox="0 0 165.02 113.52"><g id="Layer_2" data-name="Layer 2"><g id="Layer_1-2" data-name="Layer 1"><path d="M165,113.51h-2.31q-58.46,0-116.91,0C22.43,113.46,3.66,97.07.38,74A44.62,44.62,0,0,1,0,67.72Q0,35,0,2.23C0,1.57.07.92.12.1a22.39,22.39,0,0,1,18.2,9.37,22.45,22.45,0,0,1,4.34,13.78c0,14.51.31,29-.09,43.53-.35,13,9.75,24.28,24.23,24.16,31.64-.28,63.29-.1,94.93-.08,10.85,0,19.75,6.73,22.37,16.85C164.57,109.5,164.69,111.37,165,113.51Z"/><path d="M164.82.16a21.35,21.35,0,0,1-4.35,13.31,22.36,22.36,0,0,1-18.76,9.27c-16.94,0-33.87,0-50.8,0-11.1,0-20.35,7.42-22.34,18.09-.7,3.72-.43,7.62-.57,11.44,0,1.68,0,3.36,0,5A11.21,11.21,0,0,1,57.21,68.07c-6,.2-11.4-4-11.67-9.92-.33-7.43-.75-14.92.86-22.29A45,45,0,0,1,90.17.13c24.45-.25,48.91-.06,73.36-.06C163.86.07,164.19.12,164.82.16Z"/><path d="M124.12,68.08c-7.39,0-14.78,0-22.17,0a11.3,11.3,0,0,1-2-22.38,11.47,11.47,0,0,1,2.2-.19c14.57,0,29.15-.12,43.72,0,7.61.08,13.61,3.57,18.1,9.73a2.18,2.18,0,0,1,0,3c-4.53,6.21-10.57,9.63-18.28,9.77C138.49,68.18,131.3,68.08,124.12,68.08Z"/></g></g></svg>