<svg xmlns="http://www.w3.org/2000/svg" width="244" height="95" viewBox="0 0 244 95">
  <g id="Group_1" data-name="Group 1" transform="translate(-89 -22)">
    <text id="ENEOUISSER_LAKFIFI_LAAROUSSI" data-name="ENEOUISSER
LAKFIFI
LAAROUSSI" transform="translate(202 48)" stroke="#707070" stroke-width="1" font-size="23" font-family="SegoeUI, Segoe UI"><tspan x="0" y="0">ENEOUISSER</tspan><tspan x="0" y="31">LAKFIFI</tspan><tspan x="0" y="62">LAAROUSSI</tspan></text>
    <g id="Layer_2" data-name="Layer 2" transform="translate(89 31.604)">
      <g id="Layer_1" data-name="Layer 1" transform="translate(0 0)">
        <path id="Path_1" data-name="Path 1" d="M113.839,78.346H31.585A31.227,31.227,0,0,1,.261,51.087,30.785,30.785,0,0,1,0,46.754Q0,24.179,0,1.57C0,1.114.048.666.082.1A15.448,15.448,0,0,1,12.639,6.565a15.489,15.489,0,0,1,2.994,9.507c0,10.011.214,20.008-.062,30.033A16.175,16.175,0,0,0,32.288,62.774c21.83-.193,43.666-.069,65.5-.055a15.523,15.523,0,0,1,15.434,11.625A37.374,37.374,0,0,1,113.839,78.346Z" transform="translate(0.002 -0.032)"/>
        <path id="Path_2" data-name="Path 2" d="M127.741.111a14.73,14.73,0,0,1-3,9.183,15.427,15.427,0,0,1-12.943,6.4H76.747A15.363,15.363,0,0,0,61.334,28.17a53.543,53.543,0,0,0-.393,7.893v3.45A7.734,7.734,0,0,1,53.5,46.964c-4.14.138-7.865-2.76-8.052-6.844-.228-5.126-.517-10.294.593-15.379A31.047,31.047,0,0,1,76.237.09C93.106-.083,109.982.049,126.851.049,127.078.049,127.306.083,127.741.111Z" transform="translate(-14.023 -0.001)"/>
        <path id="Path_3" data-name="Path 3" d="M113.807,61.065h-15.3a7.8,7.8,0,0,1-1.38-15.441,7.913,7.913,0,0,1,1.518-.131c10.052,0,20.112-.083,30.164,0A15.1,15.1,0,0,1,141.3,52.207a1.5,1.5,0,0,1,0,2.07,15.305,15.305,0,0,1-12.612,6.741C123.721,61.134,118.761,61.065,113.807,61.065Z" transform="translate(-28.17 -14.095)"/>
      </g>
    </g>
  </g>
</svg>
